<svg xmlns="http://www.w3.org/2000/svg" width="313" height="40"><defs><linearGradient id="bg" x1="50%" y1="0%" x2="50%" y2="100%"><stop offset="0%" stop-color="#181f29" /><stop offset="100%" stop-color="#0f131a" /></linearGradient></defs><rect fill="url(#bg)" width="313" height="40" rx="8" ry="8" /><rect x="1.05" y="1.05" width="310.9" height="37.9" fill="none" stroke="#ffffff26" stroke-width="2.1" rx="6.95" ry="6.95" /><g transform="translate(8, 7)" fill="#fff"><g><path d="m14,0C6.27,0,0,6.2,0,13.84c0,6.12,4.01,11.31,9.57,13.13.7.13.96-.3.96-.67,0-.33,0-1.2-.01-2.35-3.9.83-4.72-1.86-4.72-1.86-.64-1.6-1.56-2.02-1.56-2.02-1.27-.86.1-.84.1-.84,1.4.09,2.14,1.42,2.14,1.42,1.25,2.12,3.28,1.51,4.08,1.15.12-.89.49-1.51.88-1.85-3.11-.35-6.38-1.54-6.38-6.84,0-1.51.54-2.75,1.44-3.72-.15-.35-.63-1.76.12-3.66,0,0,1.17-.37,3.85,1.42,1.12-.31,2.31-.46,3.5-.47,1.19,0,2.38.16,3.5.47,2.66-1.79,3.83-1.42,3.83-1.42.75,1.91.28,3.32.14,3.66.89.97,1.43,2.2,1.43,3.72,0,5.32-3.27,6.49-6.38,6.83.49.41.94,1.27.94,2.56,0,1.85-.02,3.34-.02,3.79,0,.36.24.79.97.65,5.6-1.81,9.61-7,9.61-13.11C28,6.2,21.73,0,14,0h0Z" /></g></g><path d="M43.36 13.39L45.22 13.39L45.22 25.75L43.36 25.75L43.36 13.39ZM54.74 18.74L54.74 18.74L53.11 19.03Q53.01 18.72 52.78 18.43Q52.56 18.15 52.19 17.97Q51.82 17.79 51.25 17.79L51.25 17.79Q50.49 17.79 49.97 18.13Q49.46 18.47 49.46 19.01L49.46 19.01Q49.46 19.47 49.81 19.76Q50.15 20.04 50.92 20.22L50.92 20.22L52.39 20.56Q53.67 20.85 54.30 21.47Q54.93 22.09 54.93 23.07L54.93 23.07Q54.93 23.90 54.45 24.55Q53.97 25.20 53.11 25.57Q52.26 25.94 51.13 25.94L51.13 25.94Q49.58 25.94 48.59 25.27Q47.61 24.60 47.38 23.37L47.38 23.37L49.13 23.11Q49.29 23.79 49.80 24.14Q50.31 24.48 51.12 24.48L51.12 24.48Q52.01 24.48 52.54 24.11Q53.07 23.74 53.07 23.20L53.07 23.20Q53.07 22.77 52.75 22.47Q52.43 22.18 51.76 22.03L51.76 22.03L50.19 21.68Q48.89 21.39 48.28 20.74Q47.66 20.09 47.66 19.10L47.66 19.10Q47.66 18.28 48.12 17.67Q48.57 17.05 49.38 16.70Q50.19 16.36 51.24 16.36L51.24 16.36Q52.74 16.36 53.60 17.01Q54.47 17.65 54.74 18.74ZM63.85 18.74L63.85 18.74L62.22 19.03Q62.12 18.72 61.89 18.43Q61.67 18.15 61.30 17.97Q60.93 17.79 60.36 17.79L60.36 17.79Q59.60 17.79 59.08 18.13Q58.57 18.47 58.57 19.01L58.57 19.01Q58.57 19.47 58.92 19.76Q59.26 20.04 60.03 20.22L60.03 20.22L61.50 20.56Q62.78 20.85 63.41 21.47Q64.03 22.09 64.03 23.07L64.03 23.07Q64.03 23.90 63.55 24.55Q63.07 25.20 62.22 25.57Q61.37 25.94 60.24 25.94L60.24 25.94Q58.69 25.94 57.70 25.27Q56.72 24.60 56.49 23.37L56.49 23.37L58.24 23.11Q58.40 23.79 58.91 24.14Q59.42 24.48 60.23 24.48L60.23 24.48Q61.12 24.48 61.65 24.11Q62.18 23.74 62.18 23.20L62.18 23.20Q62.18 22.77 61.86 22.47Q61.54 22.18 60.87 22.03L60.87 22.03L59.30 21.68Q58.00 21.39 57.39 20.74Q56.77 20.09 56.77 19.10L56.77 19.10Q56.77 18.28 57.23 17.67Q57.68 17.05 58.49 16.70Q59.30 16.36 60.35 16.36L60.35 16.36Q61.85 16.36 62.71 17.01Q63.58 17.65 63.85 18.74ZM71.89 21.90L71.89 21.90L71.89 16.48L73.70 16.48L73.70 25.75L71.93 25.75L71.93 24.14L71.83 24.14Q71.51 24.89 70.81 25.38Q70.10 25.87 69.06 25.87L69.06 25.87Q68.16 25.87 67.48 25.48Q66.79 25.08 66.40 24.30Q66.01 23.52 66.01 22.38L66.01 22.38L66.01 16.48L67.82 16.48L67.82 22.16Q67.82 23.11 68.35 23.67Q68.87 24.23 69.71 24.23L69.71 24.23Q70.22 24.23 70.72 23.98Q71.22 23.72 71.56 23.21Q71.89 22.70 71.89 21.90ZM80.12 25.94L80.12 25.94Q78.75 25.94 77.76 25.35Q76.77 24.76 76.24 23.69Q75.70 22.62 75.70 21.17L75.70 21.17Q75.70 19.75 76.24 18.66Q76.77 17.58 77.74 16.97Q78.70 16.36 79.99 16.36L79.99 16.36Q80.78 16.36 81.51 16.62Q82.25 16.88 82.83 17.43Q83.42 17.99 83.76 18.87Q84.10 19.76 84.10 21.02L84.10 21.02L84.10 21.66L76.72 21.66L76.72 20.30L82.33 20.30Q82.33 19.59 82.04 19.04Q81.75 18.49 81.22 18.17Q80.70 17.85 80.00 17.85L80.00 17.85Q79.24 17.85 78.68 18.22Q78.11 18.59 77.81 19.18Q77.50 19.78 77.50 20.47L77.50 20.47L77.50 21.53Q77.50 22.46 77.83 23.11Q78.16 23.76 78.75 24.10Q79.34 24.45 80.14 24.45L80.14 24.45Q80.65 24.45 81.07 24.30Q81.49 24.15 81.80 23.85Q82.11 23.56 82.27 23.12L82.27 23.12L83.98 23.43Q83.78 24.19 83.25 24.75Q82.72 25.32 81.93 25.63Q81.13 25.94 80.12 25.94ZM93.05 18.74L93.05 18.74L91.42 19.03Q91.32 18.72 91.10 18.43Q90.88 18.15 90.50 17.97Q90.13 17.79 89.56 17.79L89.56 17.79Q88.80 17.79 88.29 18.13Q87.77 18.47 87.77 19.01L87.77 19.01Q87.77 19.47 88.12 19.76Q88.46 20.04 89.23 20.22L89.23 20.22L90.70 20.56Q91.98 20.85 92.61 21.47Q93.24 22.09 93.24 23.07L93.24 23.07Q93.24 23.90 92.76 24.55Q92.28 25.20 91.42 25.57Q90.57 25.94 89.44 25.94L89.44 25.94Q87.89 25.94 86.90 25.27Q85.92 24.60 85.70 23.37L85.70 23.37L87.44 23.11Q87.60 23.79 88.11 24.14Q88.62 24.48 89.43 24.48L89.43 24.48Q90.32 24.48 90.85 24.11Q91.38 23.74 91.38 23.20L91.38 23.20Q91.38 22.77 91.06 22.47Q90.74 22.18 90.07 22.03L90.07 22.03L88.50 21.68Q87.20 21.39 86.59 20.74Q85.97 20.09 85.97 19.10L85.97 19.10Q85.97 18.28 86.43 17.67Q86.88 17.05 87.69 16.70Q88.50 16.36 89.55 16.36L89.55 16.36Q91.05 16.36 91.91 17.01Q92.78 17.65 93.05 18.74ZM103.32 25.93L103.32 25.93Q102.07 25.93 101.18 25.47Q100.28 25.02 99.80 24.24Q99.31 23.46 99.31 22.47L99.31 22.47Q99.31 21.71 99.63 21.12Q99.94 20.53 100.50 20.03Q101.07 19.53 101.80 19.02L101.80 19.02L103.79 17.62Q104.30 17.29 104.58 16.91Q104.87 16.54 104.87 15.99L104.87 15.99Q104.87 15.56 104.49 15.16Q104.12 14.76 103.49 14.76L103.49 14.76Q103.06 14.76 102.73 14.97Q102.40 15.19 102.22 15.51Q102.03 15.84 102.03 16.21L102.03 16.21Q102.03 16.63 102.26 17.06Q102.50 17.49 102.86 17.94Q103.23 18.40 103.64 18.89L103.64 18.89L109.38 25.75L107.34 25.75L102.59 20.17Q101.99 19.46 101.48 18.83Q100.96 18.21 100.65 17.57Q100.33 16.92 100.33 16.18L100.33 16.18Q100.33 15.32 100.72 14.66Q101.11 14.00 101.81 13.63Q102.51 13.25 103.45 13.25L103.45 13.25Q104.40 13.25 105.09 13.62Q105.77 14.00 106.15 14.61Q106.52 15.22 106.52 15.95L106.52 15.95Q106.52 16.83 106.08 17.50Q105.64 18.17 104.87 18.74L104.87 18.74L102.39 20.56Q101.67 21.10 101.39 21.61Q101.11 22.13 101.11 22.42L101.11 22.42Q101.11 22.95 101.38 23.40Q101.66 23.85 102.16 24.13Q102.65 24.40 103.32 24.40L103.32 24.40Q104.01 24.40 104.67 24.10Q105.32 23.80 105.86 23.24Q106.39 22.68 106.70 21.89Q107.02 21.11 107.02 20.14L107.02 20.14L108.65 20.14Q108.65 21.33 108.38 22.16Q108.10 22.98 107.72 23.50Q107.34 24.01 107.00 24.30L107.00 24.30Q106.89 24.40 106.79 24.49Q106.70 24.59 106.59 24.69L106.59 24.69Q105.96 25.32 105.07 25.62Q104.18 25.93 103.32 25.93ZM123.98 16.63L122.18 16.63Q122.08 15.78 121.38 15.30Q120.68 14.83 119.62 14.83L119.62 14.83Q118.86 14.83 118.30 15.07Q117.75 15.31 117.44 15.72Q117.14 16.13 117.14 16.66L117.14 16.66Q117.14 17.10 117.34 17.42Q117.55 17.74 117.89 17.95Q118.23 18.17 118.63 18.31Q119.02 18.45 119.38 18.54L119.38 18.54L120.59 18.86Q121.18 19.00 121.80 19.25Q122.42 19.50 122.96 19.90Q123.49 20.30 123.82 20.90Q124.14 21.50 124.14 22.33L124.14 22.33Q124.14 23.38 123.60 24.20Q123.06 25.01 122.04 25.48Q121.02 25.96 119.57 25.96L119.57 25.96Q118.18 25.96 117.17 25.51Q116.15 25.07 115.58 24.26Q115.00 23.45 114.94 22.33L114.94 22.33L116.82 22.33Q116.87 23.00 117.25 23.45Q117.64 23.89 118.24 24.10Q118.84 24.32 119.56 24.32L119.56 24.32Q120.35 24.32 120.97 24.07Q121.58 23.82 121.94 23.37Q122.30 22.92 122.30 22.31L122.30 22.31Q122.30 21.77 121.99 21.42Q121.68 21.07 121.15 20.84Q120.62 20.61 119.95 20.43L119.95 20.43L118.49 20.03Q117.01 19.63 116.14 18.84Q115.28 18.06 115.28 16.77L115.28 16.77Q115.28 15.70 115.86 14.90Q116.44 14.10 117.43 13.66Q118.42 13.22 119.66 13.22L119.66 13.22Q120.91 13.22 121.88 13.66Q122.84 14.10 123.40 14.87Q123.95 15.64 123.98 16.63L123.98 16.63ZM132.10 21.90L132.10 21.90L132.10 16.48L133.91 16.48L133.91 25.75L132.14 25.75L132.14 24.14L132.04 24.14Q131.72 24.89 131.02 25.38Q130.31 25.87 129.27 25.87L129.27 25.87Q128.38 25.87 127.69 25.48Q127.01 25.08 126.62 24.30Q126.23 23.52 126.23 22.38L126.23 22.38L126.23 16.48L128.03 16.48L128.03 22.16Q128.03 23.11 128.56 23.67Q129.08 24.23 129.92 24.23L129.92 24.23Q130.43 24.23 130.93 23.98Q131.44 23.72 131.77 23.21Q132.11 22.70 132.10 21.90ZM140.22 29.42L140.22 29.42Q139.12 29.42 138.32 29.13Q137.53 28.84 137.03 28.36Q136.53 27.89 136.28 27.32L136.28 27.32L137.83 26.68Q137.99 26.95 138.27 27.24Q138.54 27.54 139.02 27.75Q139.49 27.97 140.24 27.97L140.24 27.97Q141.27 27.97 141.94 27.47Q142.61 26.97 142.61 25.88L142.61 25.88L142.61 24.06L142.49 24.06Q142.33 24.36 142.02 24.72Q141.72 25.08 141.19 25.35Q140.66 25.61 139.80 25.61L139.80 25.61Q138.71 25.61 137.83 25.09Q136.95 24.58 136.44 23.57Q135.93 22.56 135.93 21.08L135.93 21.08Q135.93 19.60 136.43 18.54Q136.94 17.49 137.82 16.92Q138.70 16.36 139.82 16.36L139.82 16.36Q140.68 16.36 141.21 16.64Q141.74 16.93 142.04 17.31Q142.34 17.69 142.50 17.98L142.50 17.98L142.64 17.98L142.64 16.48L144.40 16.48L144.40 25.96Q144.40 27.15 143.85 27.92Q143.29 28.68 142.35 29.05Q141.40 29.42 140.22 29.42ZM140.20 24.11L140.20 24.11Q140.98 24.11 141.52 23.75Q142.06 23.38 142.34 22.70Q142.62 22.01 142.62 21.05L142.62 21.05Q142.62 20.12 142.35 19.41Q142.07 18.69 141.53 18.29Q140.99 17.89 140.20 17.89L140.20 17.89Q139.39 17.89 138.84 18.31Q138.30 18.73 138.03 19.45Q137.75 20.17 137.75 21.05L137.75 21.05Q137.75 21.96 138.03 22.65Q138.31 23.34 138.85 23.73Q139.40 24.11 140.20 24.11ZM150.71 29.42L150.71 29.42Q149.61 29.42 148.81 29.13Q148.02 28.84 147.52 28.36Q147.02 27.89 146.77 27.32L146.77 27.32L148.32 26.68Q148.49 26.95 148.76 27.24Q149.03 27.54 149.51 27.75Q149.98 27.97 150.73 27.97L150.73 27.97Q151.76 27.97 152.43 27.47Q153.10 26.97 153.10 25.88L153.10 25.88L153.10 24.06L152.98 24.06Q152.82 24.36 152.52 24.72Q152.21 25.08 151.68 25.35Q151.15 25.61 150.30 25.61L150.30 25.61Q149.20 25.61 148.32 25.09Q147.44 24.58 146.93 23.57Q146.42 22.56 146.42 21.08L146.42 21.08Q146.42 19.60 146.92 18.54Q147.43 17.49 148.31 16.92Q149.19 16.36 150.31 16.36L150.31 16.36Q151.17 16.36 151.70 16.64Q152.23 16.93 152.53 17.31Q152.83 17.69 153.00 17.98L153.00 17.98L153.13 17.98L153.13 16.48L154.90 16.48L154.90 25.96Q154.90 27.15 154.34 27.92Q153.79 28.68 152.84 29.05Q151.90 29.42 150.71 29.42ZM150.69 24.11L150.69 24.11Q151.47 24.11 152.01 23.75Q152.55 23.38 152.84 22.70Q153.12 22.01 153.12 21.05L153.12 21.05Q153.12 20.12 152.84 19.41Q152.56 18.69 152.02 18.29Q151.49 17.89 150.69 17.89L150.69 17.89Q149.88 17.89 149.34 18.31Q148.79 18.73 148.52 19.45Q148.24 20.17 148.24 21.05L148.24 21.05Q148.24 21.96 148.52 22.65Q148.80 23.34 149.35 23.73Q149.89 24.11 150.69 24.11ZM161.31 25.94L161.31 25.94Q159.94 25.94 158.96 25.35Q157.97 24.76 157.44 23.69Q156.90 22.62 156.90 21.17L156.90 21.17Q156.90 19.75 157.44 18.66Q157.97 17.58 158.93 16.97Q159.90 16.36 161.19 16.36L161.19 16.36Q161.97 16.36 162.71 16.62Q163.44 16.88 164.03 17.43Q164.62 17.99 164.95 18.87Q165.29 19.76 165.29 21.02L165.29 21.02L165.29 21.66L157.92 21.66L157.92 20.30L163.52 20.30Q163.52 19.59 163.23 19.04Q162.94 18.49 162.42 18.17Q161.90 17.85 161.20 17.85L161.20 17.85Q160.44 17.85 159.87 18.22Q159.31 18.59 159.00 19.18Q158.70 19.78 158.70 20.47L158.70 20.47L158.70 21.53Q158.70 22.46 159.03 23.11Q159.36 23.76 159.95 24.10Q160.54 24.45 161.33 24.45L161.33 24.45Q161.85 24.45 162.27 24.30Q162.69 24.15 163.00 23.85Q163.31 23.56 163.47 23.12L163.47 23.12L165.18 23.43Q164.97 24.19 164.44 24.75Q163.92 25.32 163.12 25.63Q162.33 25.94 161.31 25.94ZM174.25 18.74L174.25 18.74L172.62 19.03Q172.51 18.72 172.29 18.43Q172.07 18.15 171.70 17.97Q171.32 17.79 170.76 17.79L170.76 17.79Q170.00 17.79 169.48 18.13Q168.97 18.47 168.97 19.01L168.97 19.01Q168.97 19.47 169.31 19.76Q169.66 20.04 170.42 20.22L170.42 20.22L171.90 20.56Q173.18 20.85 173.80 21.47Q174.43 22.09 174.43 23.07L174.43 23.07Q174.43 23.90 173.95 24.55Q173.47 25.20 172.62 25.57Q171.76 25.94 170.64 25.94L170.64 25.94Q169.08 25.94 168.10 25.27Q167.12 24.60 166.89 23.37L166.89 23.37L168.64 23.11Q168.80 23.79 169.31 24.14Q169.81 24.48 170.63 24.48L170.63 24.48Q171.52 24.48 172.05 24.11Q172.58 23.74 172.58 23.20L172.58 23.20Q172.58 22.77 172.26 22.47Q171.93 22.18 171.27 22.03L171.27 22.03L169.70 21.68Q168.40 21.39 167.78 20.74Q167.16 20.09 167.16 19.10L167.16 19.10Q167.16 18.28 167.62 17.67Q168.08 17.05 168.89 16.70Q169.70 16.36 170.74 16.36L170.74 16.36Q172.25 16.36 173.11 17.01Q173.97 17.65 174.25 18.74ZM175.68 16.48L180.74 16.48L180.74 17.93L175.68 17.93L175.68 16.48ZM177.03 23.40L177.03 14.26L178.84 14.26L178.84 23.03Q178.84 23.55 179.00 23.82Q179.15 24.08 179.40 24.17Q179.65 24.26 179.95 24.26L179.95 24.26Q180.17 24.26 180.33 24.23Q180.49 24.20 180.58 24.19L180.58 24.19L180.91 25.68Q180.75 25.74 180.46 25.80Q180.17 25.86 179.74 25.87L179.74 25.87Q179.03 25.88 178.41 25.62Q177.79 25.35 177.41 24.80Q177.03 24.24 177.03 23.40L177.03 23.40ZM184.54 25.75L182.73 25.75L182.73 16.48L184.54 16.48L184.54 25.75ZM183.64 15.05L183.64 15.05Q183.17 15.05 182.84 14.73Q182.50 14.41 182.50 13.97L182.50 13.97Q182.50 13.53 182.84 13.21Q183.17 12.89 183.64 12.89L183.64 12.89Q184.12 12.89 184.45 13.21Q184.79 13.53 184.79 13.97L184.79 13.97Q184.79 14.41 184.45 14.73Q184.12 15.05 183.64 15.05ZM190.87 25.94L190.87 25.94Q189.57 25.94 188.59 25.34Q187.62 24.74 187.09 23.67Q186.55 22.59 186.55 21.16L186.55 21.16Q186.55 19.71 187.09 18.63Q187.62 17.55 188.59 16.95Q189.57 16.36 190.87 16.36L190.87 16.36Q192.17 16.36 193.15 16.95Q194.12 17.55 194.66 18.63Q195.19 19.71 195.19 21.16L195.19 21.16Q195.19 22.59 194.66 23.67Q194.12 24.74 193.15 25.34Q192.17 25.94 190.87 25.94ZM190.88 24.42L190.88 24.42Q191.72 24.42 192.28 23.98Q192.83 23.53 193.10 22.79Q193.37 22.04 193.37 21.15L193.37 21.15Q193.37 20.26 193.10 19.52Q192.83 18.77 192.28 18.32Q191.72 17.87 190.88 17.87L190.88 17.87Q190.03 17.87 189.47 18.32Q188.91 18.77 188.64 19.52Q188.37 20.26 188.37 21.15L188.37 21.15Q188.37 22.04 188.64 22.79Q188.91 23.53 189.47 23.98Q190.03 24.42 190.88 24.42ZM199.01 20.24L199.01 20.24L199.01 25.75L197.20 25.75L197.20 16.48L198.94 16.48L198.94 17.99L199.05 17.99Q199.37 17.25 200.06 16.80Q200.74 16.36 201.79 16.36L201.79 16.36Q202.73 16.36 203.45 16.75Q204.16 17.15 204.55 17.93Q204.94 18.70 204.94 19.85L204.94 19.85L204.94 25.75L203.14 25.75L203.14 20.07Q203.14 19.06 202.61 18.49Q202.09 17.92 201.17 17.92L201.17 17.92Q200.54 17.92 200.06 18.19Q199.57 18.46 199.29 18.99Q199.01 19.51 199.01 20.24ZM214.31 18.74L214.31 18.74L212.67 19.03Q212.57 18.72 212.35 18.43Q212.13 18.15 211.75 17.97Q211.38 17.79 210.82 17.79L210.82 17.79Q210.05 17.79 209.54 18.13Q209.02 18.47 209.02 19.01L209.02 19.01Q209.02 19.47 209.37 19.76Q209.71 20.04 210.48 20.22L210.48 20.22L211.95 20.56Q213.23 20.85 213.86 21.47Q214.49 22.09 214.49 23.07L214.49 23.07Q214.49 23.90 214.01 24.55Q213.53 25.20 212.67 25.57Q211.82 25.94 210.70 25.94L210.70 25.94Q209.14 25.94 208.15 25.27Q207.17 24.60 206.95 23.37L206.95 23.37L208.69 23.11Q208.85 23.79 209.36 24.14Q209.87 24.48 210.68 24.48L210.68 24.48Q211.57 24.48 212.10 24.11Q212.63 23.74 212.63 23.20L212.63 23.20Q212.63 22.77 212.31 22.47Q211.99 22.18 211.32 22.03L211.32 22.03L209.75 21.68Q208.46 21.39 207.84 20.74Q207.22 20.09 207.22 19.10L207.22 19.10Q207.22 18.28 207.68 17.67Q208.14 17.05 208.95 16.70Q209.75 16.36 210.80 16.36L210.80 16.36Q212.30 16.36 213.17 17.01Q214.03 17.65 214.31 18.74ZM224.88 25.94L224.88 25.94Q223.57 25.94 222.60 25.34Q221.63 24.74 221.09 23.67Q220.55 22.59 220.55 21.16L220.55 21.16Q220.55 19.71 221.09 18.63Q221.63 17.55 222.60 16.95Q223.57 16.36 224.88 16.36L224.88 16.36Q226.18 16.36 227.15 16.95Q228.12 17.55 228.66 18.63Q229.20 19.71 229.20 21.16L229.20 21.16Q229.20 22.59 228.66 23.67Q228.12 24.74 227.15 25.34Q226.18 25.94 224.88 25.94ZM224.88 24.42L224.88 24.42Q225.73 24.42 226.28 23.98Q226.84 23.53 227.11 22.79Q227.38 22.04 227.38 21.15L227.38 21.15Q227.38 20.26 227.11 19.52Q226.84 18.77 226.28 18.32Q225.73 17.87 224.88 17.87L224.88 17.87Q224.03 17.87 223.47 18.32Q222.91 18.77 222.65 19.52Q222.38 20.26 222.38 21.15L222.38 21.15Q222.38 22.04 222.65 22.79Q222.91 23.53 223.47 23.98Q224.03 24.42 224.88 24.42ZM233.01 20.24L233.01 20.24L233.01 25.75L231.21 25.75L231.21 16.48L232.94 16.48L232.94 17.99L233.06 17.99Q233.38 17.25 234.06 16.80Q234.75 16.36 235.79 16.36L235.79 16.36Q236.74 16.36 237.45 16.75Q238.16 17.15 238.56 17.93Q238.95 18.70 238.95 19.85L238.95 19.85L238.95 25.75L237.14 25.75L237.14 20.07Q237.14 19.06 236.62 18.49Q236.09 17.92 235.18 17.92L235.18 17.92Q234.55 17.92 234.06 18.19Q233.58 18.46 233.30 18.99Q233.01 19.51 233.01 20.24Z" fill="#f8f8f8" /><path d="M258.07 17.43L255.05 17.43Q254.95 17.04 254.75 16.75Q254.55 16.46 254.26 16.25Q253.97 16.05 253.59 15.94Q253.22 15.84 252.77 15.84L252.77 15.84Q251.87 15.84 251.22 16.27Q250.56 16.71 250.21 17.54Q249.85 18.37 249.85 19.55L249.85 19.55Q249.85 20.74 250.20 21.58Q250.54 22.42 251.19 22.86Q251.84 23.30 252.77 23.30L252.77 23.30Q253.59 23.30 254.16 23.03Q254.74 22.76 255.03 22.27Q255.33 21.77 255.33 21.10L255.33 21.10L255.88 21.17L252.88 21.17L252.88 18.99L258.21 18.99L258.21 20.62Q258.21 22.28 257.50 23.47Q256.80 24.65 255.57 25.29Q254.34 25.92 252.75 25.92L252.75 25.92Q250.98 25.92 249.64 25.15Q248.30 24.39 247.55 22.96Q246.80 21.54 246.80 19.59L246.80 19.59Q246.80 18.06 247.26 16.88Q247.71 15.70 248.52 14.88Q249.33 14.06 250.40 13.64Q251.48 13.22 252.71 13.22L252.71 13.22Q253.79 13.22 254.71 13.53Q255.64 13.83 256.36 14.39Q257.07 14.96 257.52 15.73Q257.97 16.50 258.07 17.43L258.07 17.43ZM262.92 25.75L259.97 25.75L259.97 16.48L262.92 16.48L262.92 25.75ZM261.45 15.40L261.45 15.40Q260.83 15.40 260.38 14.98Q259.93 14.57 259.93 13.98L259.93 13.98Q259.93 13.40 260.38 12.99Q260.83 12.58 261.45 12.58L261.45 12.58Q262.08 12.58 262.52 12.99Q262.96 13.40 262.96 13.98L262.96 13.98Q262.96 14.57 262.52 14.98Q262.08 15.40 261.45 15.40ZM264.18 16.48L270.03 16.48L270.03 18.65L264.18 18.65L264.18 16.48ZM265.40 23.16L265.40 14.26L268.35 14.26L268.35 22.83Q268.35 23.11 268.44 23.27Q268.53 23.44 268.70 23.51Q268.87 23.58 269.10 23.58L269.10 23.58Q269.27 23.58 269.46 23.54Q269.65 23.51 269.75 23.49L269.75 23.49L270.20 25.62Q269.98 25.68 269.60 25.77Q269.22 25.86 268.69 25.88L268.69 25.88Q267.65 25.93 266.91 25.64Q266.17 25.35 265.78 24.72Q265.39 24.10 265.40 23.16L265.40 23.16ZM274.52 25.75L271.54 25.75L271.54 13.39L274.52 13.39L274.52 18.35L279.40 18.35L279.40 13.39L282.38 13.39L282.38 25.75L279.40 25.75L279.40 20.78L274.52 20.78L274.52 25.75ZM290.23 21.75L290.23 21.75L290.23 16.48L293.18 16.48L293.18 25.75L290.37 25.75L290.37 24.02L290.27 24.02Q289.96 24.87 289.22 25.37Q288.48 25.87 287.44 25.87L287.44 25.87Q286.49 25.87 285.77 25.44Q285.05 25.00 284.65 24.22Q284.26 23.44 284.25 22.39L284.25 22.39L284.25 16.48L287.20 16.48L287.20 21.81Q287.21 22.56 287.60 23.00Q287.99 23.43 288.67 23.43L288.67 23.43Q289.11 23.43 289.46 23.24Q289.82 23.04 290.02 22.66Q290.23 22.28 290.23 21.75ZM297.98 25.75L295.06 25.75L295.06 13.39L298.01 13.39L298.01 18.06L298.07 18.06Q298.25 17.64 298.58 17.25Q298.92 16.86 299.44 16.61Q299.96 16.36 300.69 16.36L300.69 16.36Q301.66 16.36 302.50 16.86Q303.34 17.37 303.86 18.43Q304.38 19.48 304.38 21.12L304.38 21.12Q304.38 22.70 303.89 23.76Q303.39 24.82 302.54 25.35Q301.70 25.88 300.68 25.88L300.68 25.88Q299.98 25.88 299.46 25.65Q298.95 25.42 298.60 25.05Q298.26 24.68 298.07 24.25L298.07 24.25L297.98 24.25L297.98 25.75ZM297.95 21.11L297.95 21.11Q297.95 21.86 298.15 22.42Q298.35 22.97 298.74 23.28Q299.12 23.58 299.66 23.58L299.66 23.58Q300.20 23.58 300.58 23.28Q300.96 22.97 301.16 22.42Q301.35 21.86 301.35 21.11L301.35 21.11Q301.35 20.37 301.16 19.82Q300.96 19.27 300.58 18.96Q300.21 18.66 299.66 18.66L299.66 18.66Q299.11 18.66 298.73 18.96Q298.35 19.25 298.15 19.80Q297.95 20.35 297.95 21.11Z" fill="#fff" /></svg>
